<!DOCTYPE svg PUBLIC "-//W3C//DTD SVG 1.1//EN" "http://www.w3.org/Graphics/SVG/1.1/DTD/svg11.dtd">
<!-- Uploaded to: SVG Repo, www.svgrepo.com, Transformed by: SVG Repo Mixer Tools -->
<svg fill="#000000" width="800px" height="800px" viewBox="-2.4 -2.4 28.80 28.80" id="turn-up-right-direction-round-2" data-name="Flat Line" xmlns="http://www.w3.org/2000/svg" class="icon flat-line" transform="rotate(0)">
<g id="SVGRepo_bgCarrier" stroke-width="0" transform="translate(0,0), scale(1)"/>
<g id="SVGRepo_tracerCarrier" stroke-linecap="round" stroke-linejoin="round" stroke="#CCCCCC" stroke-width="0.24000000000000005"/>
<g id="SVGRepo_iconCarrier">
<path id="secondary" d="M17.31,5.37,15.17,8.5a1,1,0,0,0,.69,1.5h4.28a1,1,0,0,0,.69-1.5L18.69,5.37A.82.82,0,0,0,17.31,5.37Z" style="fill: #ffaa00; stroke-width: 2;"/>
<path id="primary" d="M18,10v5a4,4,0,0,1-4,4H3" style="fill: none; stroke: #eeeeee; stroke-linecap: round; stroke-linejoin: round; stroke-width: 2;"/>
<path id="primary-2" data-name="primary" d="M17.31,5.37,15.17,8.5a1,1,0,0,0,.69,1.5h4.28a1,1,0,0,0,.69-1.5L18.69,5.37A.82.82,0,0,0,17.31,5.37Z" style="fill: none; stroke: #eeeeee; stroke-linecap: round; stroke-linejoin: round; stroke-width: 2;"/>
</g>
</svg>