<!DOCTYPE svg PUBLIC "-//W3C//DTD SVG 1.1//EN" "http://www.w3.org/Graphics/SVG/1.1/DTD/svg11.dtd">
<!-- Uploaded to: SVG Repo, www.svgrepo.com, Transformed by: SVG Repo Mixer Tools -->
<svg fill="#000000" width="800px" height="800px" viewBox="0 0 24 24" id="turn-up-left-direction-round-2" data-name="Flat Line" xmlns="http://www.w3.org/2000/svg" class="icon flat-line">
<g id="SVGRepo_bgCarrier" stroke-width="0"/>
<g id="SVGRepo_tracerCarrier" stroke-linecap="round" stroke-linejoin="round"/>
<g id="SVGRepo_iconCarrier">
<path id="secondary" d="M5.31,5.37,3.17,8.5A1,1,0,0,0,3.86,10H8.14a1,1,0,0,0,.69-1.5L6.69,5.38A.82.82,0,0,0,5.31,5.37Z" style="fill: #ffaa00; stroke-width: 2;"/>
<path id="primary" d="M21,19H10a4,4,0,0,1-4-4V10" style="fill: none; stroke: #eeeeee; stroke-linecap: round; stroke-linejoin: round; stroke-width: 2;"/>
<path id="primary-2" data-name="primary" d="M5.31,5.37,3.17,8.5A1,1,0,0,0,3.86,10H8.14a1,1,0,0,0,.69-1.5L6.69,5.38A.82.82,0,0,0,5.31,5.37Z" style="fill: none; stroke: #eeeeee; stroke-linecap: round; stroke-linejoin: round; stroke-width: 2;"/>
</g>
</svg>